# Blender v2.79 (sub 0) OBJ File: ''
# www.blender.org
mtllib title background.mtl
o Grid_Grid.001
v -2.020725 0.535060 1.025724
v -1.951760 0.535060 1.025724
v -1.882794 0.532690 1.025724
v -1.813829 0.525833 1.025724
v -1.744863 0.514867 1.025724
v -1.675897 0.500172 1.025724
v -1.606932 0.482126 1.025724
v -1.537966 0.461109 1.025724
v -1.469001 0.437498 1.025724
v -1.400036 0.411674 1.025724
v -1.331070 0.384014 1.025724
v -1.262104 0.354898 1.025724
v -1.193139 0.324704 1.025724
v -1.124173 0.293812 1.025724
v -1.055208 0.262600 1.025724
v -0.986242 0.231448 1.025724
v -0.917277 0.200733 1.025724
v -0.848311 0.170836 1.025724
v -0.779346 0.142134 1.025724
v -0.710380 0.115007 1.025724
v -0.641415 0.089833 1.025724
v -0.572449 0.066992 1.025724
v -0.503484 0.046862 1.025724
v -0.434518 0.029822 1.025724
v -0.365553 0.016251 1.025724
v -0.296587 0.006528 1.025724
v -0.227622 0.001032 1.025724
v -0.158656 -0.000098 1.025724
v -0.089691 -0.000098 1.025724
v -0.020725 -0.000098 1.025724
v -2.020725 0.535060 -0.974276
v -1.951760 0.535060 -0.974276
v -1.882794 0.532690 -0.974276
v -1.813829 0.525833 -0.974276
v -1.744863 0.514867 -0.974276
v -1.675897 0.500172 -0.974276
v -1.606932 0.482126 -0.974276
v -1.537966 0.461109 -0.974276
v -1.469001 0.437498 -0.974276
v -1.400036 0.411674 -0.974276
v -1.331070 0.384014 -0.974276
v -1.262104 0.354898 -0.974276
v -1.193139 0.324704 -0.974276
v -1.124173 0.293812 -0.974276
v -1.055208 0.262600 -0.974276
v -0.986242 0.231448 -0.974276
v -0.917277 0.200733 -0.974276
v -0.848311 0.170836 -0.974276
v -0.779346 0.142134 -0.974276
v -0.710380 0.115007 -0.974276
v -0.641415 0.089833 -0.974276
v -0.572449 0.066992 -0.974276
v -0.503484 0.046862 -0.974276
v -0.434518 0.029822 -0.974276
v -0.365553 0.016251 -0.974276
v -0.296587 0.006528 -0.974276
v -0.227622 0.001032 -0.974276
v -0.158656 -0.000098 -0.974276
v -0.089691 -0.000098 -0.974276
v -0.020725 -0.000098 -0.974276
vn 0.0000 1.0000 0.0000
vn 0.0343 0.9994 0.0000
vn 0.0989 0.9951 0.0000
vn 0.1570 0.9876 0.0000
vn 0.2084 0.9780 0.0000
vn 0.2531 0.9674 0.0000
vn 0.2915 0.9566 0.0000
vn 0.3239 0.9461 0.0000
vn 0.3507 0.9365 0.0000
vn 0.3722 0.9281 0.0000
vn 0.3889 0.9213 0.0000
vn 0.4011 0.9161 0.0000
vn 0.4088 0.9126 0.0000
vn 0.4123 0.9110 0.0000
vn 0.4117 0.9113 0.0000
vn 0.4068 0.9135 0.0000
vn 0.3977 0.9175 0.0000
vn 0.3842 0.9232 0.0000
vn 0.3660 0.9306 0.0000
vn 0.3429 0.9394 0.0000
vn 0.3144 0.9493 0.0000
vn 0.2802 0.9599 0.0000
vn 0.2399 0.9708 0.0000
vn 0.1931 0.9812 0.0000
vn 0.1396 0.9902 0.0000
vn 0.0794 0.9968 0.0000
vn 0.0164 0.9999 0.0000
usemtl None
s off
f 1//1 2//1 32//1 31//1
f 2//2 3//2 33//2 32//2
f 3//3 4//3 34//3 33//3
f 4//4 5//4 35//4 34//4
f 5//5 6//5 36//5 35//5
f 6//6 7//6 37//6 36//6
f 7//7 8//7 38//7 37//7
f 8//8 9//8 39//8 38//8
f 9//9 10//9 40//9 39//9
f 10//10 11//10 41//10 40//10
f 11//11 12//11 42//11 41//11
f 12//12 13//12 43//12 42//12
f 13//13 14//13 44//13 43//13
f 14//14 15//14 45//14 44//14
f 15//15 16//15 46//15 45//15
f 16//16 17//16 47//16 46//16
f 17//17 18//17 48//17 47//17
f 18//18 19//18 49//18 48//18
f 19//19 20//19 50//19 49//19
f 20//20 21//20 51//20 50//20
f 21//21 22//21 52//21 51//21
f 22//22 23//22 53//22 52//22
f 23//23 24//23 54//23 53//23
f 24//24 25//24 55//24 54//24
f 25//25 26//25 56//25 55//25
f 26//26 27//26 57//26 56//26
f 27//27 28//27 58//27 57//27
f 28//1 29//1 59//1 58//1
f 29//1 30//1 60//1 59//1
